<?xml version="1.0" encoding="utf-8"?>
<!-- Generator: Adobe Illustrator 27.2.0, SVG Export Plug-In . SVG Version: 6.00 Build 0)  -->
<svg version="1.1" id="Layer_1" xmlns="http://www.w3.org/2000/svg" xmlns:xlink="http://www.w3.org/1999/xlink" x="0px" y="0px"
	 viewBox="0 0 701.7 131" style="enable-background:new 0 0 701.7 131;" xml:space="preserve">
<style type="text/css">
	.st0{fill:#FFFFFF;}
	.st1{fill:#EE5B34;}
</style>
<g>
	<g>
		<path class="st0" d="M52,39.9c4,0,7.3,0.9,9.8,2.8c2.6,1.9,4.4,4,5.4,6.3h0.1v-7.6h16.5v73.8H67V87.7h-0.1
			c-0.8,1.3-1.7,2.6-2.7,3.7c-1.1,1.1-2.7,2.2-4.8,3.2c-2.1,1-4.5,1.5-7.2,1.5c-3.5,0-6.8-0.6-9.8-2c-3.1-1.3-5.8-3.1-8.1-5.5
			c-2.3-2.4-4.2-5.3-5.5-8.9c-1.4-3.6-2-7.5-2-11.7c0-4.2,0.7-8.1,2-11.7c1.3-3.6,3.2-6.5,5.4-8.9c2.3-2.4,5-4.2,8-5.6
			C45.3,40.5,48.5,39.9,52,39.9z M42.5,68c0,4.6,1.2,8.4,3.5,11.4c2.3,3,5.6,4.6,9.7,4.6s7.5-1.5,9.8-4.7c2.3-3.1,3.5-6.9,3.5-11.3
			c0-4.5-1.2-8-3.6-11.1c-2.4-3.1-5.6-4.7-9.6-4.7s-7.3,1.5-9.6,4.6C43.7,59.8,42.5,63.6,42.5,68L42.5,68z"/>
		<path class="st0" d="M95.3,72.7V41.5H111v26.6c0,1.5,0,2.9,0.1,4c0.1,1.2,0.3,2.4,0.6,3.8c0.3,1.4,0.8,2.5,1.4,3.4
			c0.6,0.9,1.5,1.6,2.5,2.2c1.1,0.6,2.4,0.9,3.9,0.9c6.7,0,10.1-6.1,10.1-18.4V41.5h15.9v53.2h-15.4v-8.5c-3.3,6.8-8.6,10.2-16,10.2
			C101.6,96.3,95.3,88.5,95.3,72.7L95.3,72.7z"/>
		<path class="st0" d="M185.8,94.6V41.5h15.4V50c3.3-6.8,8.6-10.2,15.9-10.2c12.7,0,19.1,7.8,19.1,23.5v31.3h-15.7V68.1
			c0-1.5,0-2.9-0.1-4.1c-0.1-1.2-0.3-2.4-0.6-3.8c-0.3-1.4-0.8-2.5-1.4-3.3c-0.6-0.9-1.5-1.6-2.5-2.2c-1.1-0.6-2.4-0.9-3.9-0.9
			c-6.7,0-10.1,6.1-10.1,18.4v22.4L185.8,94.6L185.8,94.6z"/>
		<path class="st0" d="M247.7,94.6V41.5h15.4V50c3.3-6.8,8.6-10.2,15.9-10.2c12.7,0,19.1,7.8,19.1,23.5v31.3h-15.7V68.1
			c0-1.5,0-2.9-0.1-4.1c-0.1-1.2-0.3-2.4-0.6-3.8c-0.3-1.4-0.8-2.5-1.4-3.3c-0.6-0.9-1.5-1.6-2.5-2.2c-1.1-0.6-2.4-0.9-3.9-0.9
			c-6.7,0-10.1,6.1-10.1,18.4v22.4L247.7,94.6L247.7,94.6z"/>
		<path class="st1" d="M343.4,71.3c0,1.7,0,3,0.1,4c0.1,0.9,0.2,1.9,0.5,3c0.3,1.1,0.6,1.9,1.1,2.4c0.5,0.5,1.2,0.9,2.1,1.3
			c0.9,0.3,2,0.5,3.3,0.5h3.2v12.5l-7.5,0.1c-3.6,0.1-6.7-0.4-9.2-1.4c-2.5-1-4.4-2.5-5.6-4.5c-1.3-2-2.1-4.2-2.7-6.6
			c-0.5-2.4-0.8-5.3-0.8-8.6V53.2h-8.9V41.5h8.9V29.7l15.6-6.8v18.5h10.9v11.7h-10.9L343.4,71.3L343.4,71.3z"/>
		<path class="st1" d="M362.8,94.6V21.2h15.4v28.7c3.3-6.7,8.6-10.1,15.9-10.1c12.7,0,19.1,7.8,19.1,23.5v31.3h-15.7V68.1
			c0-1.5,0-2.9-0.1-4.1c-0.1-1.2-0.3-2.4-0.6-3.8c-0.3-1.4-0.8-2.5-1.4-3.3c-0.6-0.9-1.5-1.6-2.5-2.2c-1.1-0.6-2.4-0.9-3.9-0.9
			c-6.7,0-10.1,6.1-10.1,18.4v22.4L362.8,94.6L362.8,94.6z"/>
		<path class="st1" d="M450,96.4c-3.8,0-7.4-0.6-10.9-1.9c-3.4-1.3-6.5-3.1-9.1-5.4c-2.7-2.4-4.8-5.4-6.3-8.9
			c-1.5-3.6-2.4-7.7-2.4-12.1c0-4.4,0.8-8.4,2.4-12c1.6-3.6,3.7-6.6,6.3-8.9c2.7-2.3,5.7-4.1,9.1-5.4c3.4-1.3,7.1-1.9,10.9-1.9
			s7.4,0.6,10.8,1.9c3.4,1.3,6.4,3.1,9.1,5.4c2.6,2.3,4.7,5.3,6.3,8.9c1.5,3.6,2.4,7.6,2.4,12c0,4.4-0.8,8.4-2.4,12.1
			c-1.5,3.6-3.6,6.6-6.3,8.9c-2.6,2.4-5.7,4.2-9.1,5.4C457.4,95.7,453.8,96.4,450,96.4z M436.6,68c0,4.5,1.2,8.3,3.7,11.4
			c2.4,3.1,5.7,4.6,9.7,4.6s7.2-1.5,9.6-4.6c2.4-3.1,3.6-6.8,3.6-11.4c0-4.6-1.2-8.3-3.7-11.3c-2.4-3.1-5.7-4.6-9.6-4.6
			s-7.3,1.5-9.7,4.6C437.8,59.7,436.6,63.5,436.6,68z"/>
		<path class="st1" d="M487,94.6V41.5h15.4V50c1.2-2.9,3-5.4,5.5-7.3c2.5-1.9,5.6-2.9,9.3-2.9c6.5,0,11.1,3.2,13.9,9.6
			c1.5-3.2,3.4-5.6,5.6-7.2c2.2-1.6,5.2-2.4,9-2.4c6.8,0,12,2.1,15.7,6.3c3.7,4.2,5.6,9.9,5.6,17.3v31.3h-15.6V68.2
			c0-1.9-0.1-3.6-0.3-5.1c-0.2-1.5-0.5-3-1-4.5c-0.5-1.5-1.3-2.7-2.4-3.5c-1.1-0.9-2.5-1.2-4.1-1.2c-2.8,0-5,1.5-6.5,4.4
			c-1.5,2.9-2.3,6.8-2.3,11.6v24.9h-15.1V68.3c0-1.3,0-2.5-0.1-3.4c0-0.9-0.2-2-0.3-3.2c-0.1-1.2-0.4-2.2-0.8-3.1
			c-0.4-0.8-0.8-1.6-1.4-2.4c-0.6-0.8-1.3-1.3-2.2-1.7c-0.9-0.4-2-0.6-3.2-0.6c-1.8,0-3.2,0.5-4.4,1.4c-1.2,0.9-2.1,2.3-2.7,4.1
			c-0.6,1.8-1.1,3.7-1.3,5.8c-0.3,2.1-0.4,4.4-0.4,7.1v22.4H487L487,94.6z"/>
		<path class="st1" d="M577.8,57.9c1-5.1,3.5-9.5,7.6-13c4.1-3.6,9.5-5.3,16.1-5.3c7.6,0,13.4,2,17.6,5.9c4.2,3.9,6.3,9.9,6.3,17.8
			v16.9c0,6.7,0.3,11.5,1,14.4h-15.5c-0.3-1.4-0.5-2.7-0.5-4v-3.1h-0.1c-3.5,5.8-8.8,8.6-16.1,8.6c-5.5,0-10-1.5-13.5-4.4
			c-3.5-2.9-5.2-6.8-5.2-11.7c0-2,0.3-3.8,1-5.4c0.6-1.6,1.5-3,2.4-4.1c0.9-1.1,2.2-2.1,3.7-3c1.5-0.9,3-1.6,4.2-2.1
			c1.2-0.5,2.8-1,4.6-1.4c1.8-0.4,3.2-0.7,4.1-0.8c0.9-0.1,2.1-0.3,3.6-0.5c1.5-0.2,2.5-0.3,3.2-0.4c0.6-0.1,1.5-0.3,2.5-0.5
			c1-0.2,1.8-0.4,2.3-0.6c0.5-0.2,0.9-0.6,1.5-0.9c0.5-0.4,0.9-0.9,1.1-1.4c0.2-0.5,0.3-1.2,0.3-2c0-1.9-0.8-3.4-2.3-4.4
			c-1.5-1-3.6-1.5-6.1-1.5c-2.2,0-4.2,0.6-5.8,1.8c-1.6,1.2-2.7,3-3.4,5.1L577.8,57.9L577.8,57.9z M591.4,79.1
			c0,1.7,0.6,3.1,1.9,4.2c1.2,1.1,3.2,1.7,5.9,1.7c7.4,0,11-5,11-15l-0.1-2.8c-1.5,2.4-4.8,4.2-9.8,5.3c-3.2,0.7-5.5,1.6-6.9,2.7
			C592.1,76.1,591.4,77.4,591.4,79.1L591.4,79.1z"/>
		<path class="st1" d="M664.4,57.2c-0.4-2.1-1.3-3.8-2.7-4.8c-1.4-1.1-3.2-1.6-5.3-1.6c-2,0-3.6,0.5-4.9,1.4
			c-1.2,0.9-1.9,2.1-1.9,3.4c0,1.5,0.6,2.8,1.8,3.7c1.2,0.9,3.5,1.9,6.7,2.7c0.9,0.2,2.1,0.6,3.7,1c1.6,0.4,2.8,0.7,3.6,1
			c4.8,1.3,8.4,3.3,10.8,5.7c2.4,2.5,3.5,5.7,3.5,9.7c0,4.9-2.1,8.9-6.2,12.2c-4.1,3.3-9.7,4.9-16.8,4.9s-12.2-1.6-16.3-4.7
			c-4.1-3.1-6.6-7.7-7.4-13.8h15.4c0.4,2.3,1.2,4.1,2.7,5.4c1.4,1.2,3.3,1.9,5.6,1.9c2.4,0,4.2-0.5,5.5-1.5c1.4-1,2-2.2,2-3.8
			c0-1-0.2-1.8-0.6-2.5c-0.4-0.7-1-1.3-1.8-1.7c-0.8-0.5-1.5-0.8-2.2-1c-0.7-0.2-1.5-0.5-2.6-0.8c-0.9-0.3-2.2-0.6-4-1.1
			c-1.8-0.5-3.1-0.9-4-1.1c-9.5-2.7-14.3-7.9-14.3-15.8c0-4.7,2-8.5,5.9-11.6c3.9-3.1,9.1-4.6,15.6-4.6c6.5,0,11.7,1.5,15.6,4.6
			c3.9,3.1,6.3,7.4,7,13L664.4,57.2L664.4,57.2z"/>
		<path class="st0" d="M157.4,59.2v34.9h16.9V41.4L157.4,59.2z"/>
		<path class="st0" d="M174.4,21.8h-17.2V37h17.2V21.8z"/>
	</g>
</g>
</svg>
